<?xml version="1.0" encoding="utf-8"?>
<!-- Generator: Adobe Illustrator 18.1.0, SVG Export Plug-In . SVG Version: 6.00 Build 0)  -->
<!DOCTYPE svg PUBLIC "-//W3C//DTD SVG 1.1//EN" "http://www.w3.org/Graphics/SVG/1.1/DTD/svg11.dtd">
<svg version="1.1" id="Layer_2" xmlns="http://www.w3.org/2000/svg" xmlns:xlink="http://www.w3.org/1999/xlink" x="0px" y="0px"
	 viewBox="0 0 387 274" enable-background="new 0 0 387 274" xml:space="preserve">
<pattern  x="-109" y="560" width="4.7" height="4.7" patternUnits="userSpaceOnUse" id="Bathroom_Tile" viewBox="0 -4.7 4.7 4.7" overflow="visible">
	<g>
		<polygon fill="none" points="0,0 0,-4.7 4.7,-4.7 4.7,0 		"/>
		<polygon fill="#CCDFF3" points="4.7,0 0.1,0 0.1,-4.6 4.7,-4.6 		"/>
		<polyline fill="#CCDFF3" points="0.1,0 0.1,-4.6 4.7,-4.6 		"/>
		<polyline fill="none" stroke="#909EAE" stroke-width="0.22" stroke-miterlimit="10" points="0.1,0 0.1,-4.6 4.7,-4.6 		"/>
	</g>
</pattern>
<polygon fill="#E6E7E8" stroke="#000000" stroke-width="0.2176" stroke-miterlimit="10" points="14.7,263 103.7,263 104.2,247.7 
	369.4,247.7 370.9,227.3 370.2,227.3 370.9,212.5 370.7,212.5 370.7,125.2 370.7,125.2 370.7,18.2 141.5,18.2 141.5,14.2 
	115.5,14.2 115.5,18.2 14.7,18.2 "/>
<polygon fill="#FFD49A" points="170.5,147 231,147 231,174.3 209.5,175.3 203.8,185.2 197.7,186.8 205.8,189.2 200,191.2 
	193.8,203.1 170.5,201.8 "/>
<g>
	<g>
		<path fill="none" stroke="#000000" stroke-width="0.25" stroke-miterlimit="10" d="M116.5,21.3c0,0-0.3,9.2,6.3,15.8
			c0.3,0.3,0.6,0.5,0.8,0.8"/>
	</g>
	<line fill="#E6E7E8" stroke="#000000" stroke-miterlimit="10" x1="139.7" y1="21.3" x2="123.3" y2="37.7"/>
</g>
<g>
	<text transform="matrix(1 0 0 1 143.6665 95.6611)" font-family="'ArialMT'" font-size="10">Unfinished Basement</text>
</g>
<g>
	<rect x="200.2" y="14.9" fill="#E6E7E8" stroke="#000000" stroke-width="0.25" stroke-miterlimit="10" width="23.5" height="6.8"/>
	<line fill="none" stroke="#000000" stroke-width="0.25" stroke-miterlimit="10" x1="200.5" y1="18.5" x2="224" y2="18.5"/>
	<line fill="none" stroke="#000000" stroke-width="0.25" stroke-miterlimit="10" x1="200.3" y1="16.4" x2="223.8" y2="16.4"/>
	<line fill="none" stroke="#000000" stroke-width="0.25" stroke-miterlimit="10" x1="200.5" y1="17.5" x2="224" y2="17.5"/>
</g>
<g>
	<rect x="292.5" y="14.9" fill="#E6E7E8" stroke="#000000" stroke-width="0.25" stroke-miterlimit="10" width="23.5" height="6.8"/>
	<line fill="none" stroke="#000000" stroke-width="0.25" stroke-miterlimit="10" x1="292.7" y1="18.5" x2="316.2" y2="18.5"/>
	<line fill="none" stroke="#000000" stroke-width="0.25" stroke-miterlimit="10" x1="292.5" y1="16.4" x2="316.1" y2="16.4"/>
	<line fill="none" stroke="#000000" stroke-width="0.25" stroke-miterlimit="10" x1="292.7" y1="17.5" x2="316.2" y2="17.5"/>
</g>
<circle fill="#E6E7E8" stroke="#000000" stroke-width="0.25" stroke-miterlimit="10" cx="197.4" cy="220" r="7.8"/>
<g>
	<text transform="matrix(1 0 0 1 169.0269 236.3271)" font-family="'ArialMT'" font-size="7">HVAC</text>
</g>
<g>
	<text transform="matrix(1 0 0 1 191.1689 222.5)" font-family="'ArialMT'" font-size="7">WH</text>
</g>
<g>
	<text transform="matrix(1 0 0 1 235.8594 163)" font-family="'ArialMT'" font-size="7">Up</text>
</g>
<polyline fill="none" stroke="#000000" stroke-width="3" stroke-miterlimit="10" points="238.3,178.3 238.3,174.3 195.3,174.3 "/>
<line fill="none" stroke="#000000" stroke-width="3" stroke-miterlimit="10" x1="238.3" y1="204.2" x2="238.3" y2="197.3"/>
<rect x="172.2" y="210.2" fill="#E6E7E8" stroke="#000000" stroke-width="0.25" stroke-miterlimit="10" width="13.6" height="19.5"/>
<line fill="none" stroke="#000000" stroke-width="0.3714" stroke-miterlimit="10" x1="196" y1="198.9" x2="196" y2="147.1"/>
<line fill="none" stroke="#000000" stroke-width="0.3714" stroke-miterlimit="10" x1="201.6" y1="185.8" x2="201.6" y2="147.1"/>
<line fill="none" stroke="#000000" stroke-width="0.3714" stroke-miterlimit="10" x1="201.6" y1="190.6" x2="201.6" y2="187.9"/>
<line fill="none" stroke="#000000" stroke-width="0.2768" stroke-miterlimit="10" x1="207.3" y1="179" x2="207.3" y2="147.1"/>
<line fill="none" stroke="#000000" stroke-width="0.25" stroke-miterlimit="10" x1="213.3" y1="174.1" x2="213.3" y2="148.1"/>
<line fill="none" stroke="#000000" stroke-width="0.25" stroke-miterlimit="10" x1="219.3" y1="174.1" x2="219.3" y2="148.1"/>
<line fill="none" stroke="#000000" stroke-width="0.25" stroke-miterlimit="10" x1="225" y1="174.1" x2="225" y2="148.1"/>
<line fill="none" stroke="#000000" stroke-width="0.25" stroke-miterlimit="10" x1="231" y1="174.1" x2="231" y2="148.1"/>
<g>
	<line fill="none" stroke="#000000" stroke-width="0.25" stroke-miterlimit="10" x1="235.3" y1="160.7" x2="210.6" y2="160.7"/>
	<path d="M208.3,160.7c1.1-0.4,2.4-1.1,3.2-1.8l-0.6,1.8l0.6,1.8C210.7,161.7,209.4,161.1,208.3,160.7z"/>
</g>
<g>
	<g>
		<path fill="none" stroke="#000000" stroke-width="0.2766" stroke-miterlimit="10" d="M239.2,178.1c0,0,7.5-0.3,13,5.2
			c0.2,0.2,0.4,0.5,0.7,0.7"/>
	</g>
	<line fill="none" stroke="#000000" stroke-width="1.1066" stroke-miterlimit="10" x1="239.2" y1="197.2" x2="252.6" y2="183.7"/>
</g>
<line fill="#E6E7E8" stroke="#000000" stroke-width="0.25" stroke-miterlimit="10" x1="172.2" y1="210.2" x2="185.8" y2="229.8"/>
<line fill="#E6E7E8" stroke="#000000" stroke-width="0.25" stroke-miterlimit="10" x1="185.8" y1="210.2" x2="172.2" y2="229.8"/>
<line fill="none" stroke="#000000" stroke-width="3" stroke-miterlimit="10" x1="170.3" y1="145.2" x2="170.3" y2="202.3"/>
<rect x="169" y="144.2" stroke="#000000" stroke-width="0.25" stroke-miterlimit="10" width="70.3" height="4.3"/>
<rect x="169" y="200.2" stroke="#000000" stroke-width="0.25" stroke-miterlimit="10" width="70.3" height="4.3"/>
<line fill="none" stroke="#000000" stroke-width="5.5" stroke-miterlimit="10" x1="293.7" y1="19" x2="222.3" y2="19"/>
<g id="option1">
	<pattern  id="SVGID_1_" xlink:href="#Bathroom_Tile" patternTransform="matrix(0 1 1 0 1102.6904 -1105)">
	</pattern>
	
		<rect x="302.5" y="202.9" fill="url(#SVGID_1_)" stroke="#000000" stroke-width="0.2176" stroke-miterlimit="10" width="57.2" height="43.1"/>
	
		<rect x="303.8" y="231.6" fill="#E6E7E8" stroke="#000000" stroke-width="0.25" stroke-miterlimit="10" stroke-dasharray="2" width="18.6" height="13.3"/>
	
		<rect x="346.7" y="202.7" fill="#E6E7E8" stroke="#000000" stroke-width="0.284" stroke-linecap="square" stroke-miterlimit="10" stroke-dasharray="2" width="23.9" height="42.4"/>
	<g>
		<linearGradient id="SVGID_2_" gradientUnits="userSpaceOnUse" x1="349.7832" y1="223.7159" x2="364.4258" y2="223.7159">
			<stop  offset="0" style="stop-color:#6EC9EF"/>
			<stop  offset="1" style="stop-color:#006CA0"/>
		</linearGradient>
		<path fill="url(#SVGID_2_)" stroke="#000000" stroke-width="0.25" stroke-miterlimit="10" stroke-dasharray="2" d="M361.9,241.6
			c1.4,0,2.6-1.1,2.6-2.6v-27c0-3.3-3.6-6.2-7.2-6.2c-4.1,0-7.4,2.5-7.4,6.2v27c0,1.4,1.1,2.6,2.6,2.6H361.9z"/>
		<circle cx="357.1" cy="236.6" r="0.8"/>
	</g>
	<g>
		<g>
			<rect x="311.9" y="215.9" fill="#CCDFF3" width="30.5" height="6.7"/>
			<g>
				<text transform="matrix(1 0 0 1 312.3213 221.7842)" font-family="'ArialMT'" font-size="7">Opt. Bath</text>
			</g>
		</g>
	</g>
	
		<path fill="#E6E7E8" stroke="#000000" stroke-width="0.25" stroke-linecap="square" stroke-miterlimit="10" stroke-dasharray="2" d="
		M342,244.4c0,0-10.8,0-11.6,0c-0.8,0-1-0.7-1-1.1c0-0.4,0-2.8,0-3.3c0-0.6,0.5-1.1,1.2-1.1c0.7,0,2.3,0.5,2.3-1.3
		c0-1.8-1.6-3.6-1.6-6.5c0-2.9,1.9-5.9,4.9-5.9c3,0,4.6,3.1,4.6,5.9s-1.5,4.5-1.5,6.5c0,1,0.5,1.4,1.1,1.4c0.6,0,1,0,1.7,0
		c0.7,0,1.1,0.3,1.1,1c0,0.7,0,3.2,0,3.7C343.1,243.9,342.7,244.4,342,244.4z"/>
	<g>
		<g>
			<linearGradient id="SVGID_3_" gradientUnits="userSpaceOnUse" x1="308.3965" y1="237.837" x2="319.2285" y2="237.837">
				<stop  offset="0" style="stop-color:#6EC9EF"/>
				<stop  offset="1" style="stop-color:#006CA0"/>
			</linearGradient>
			<path fill="url(#SVGID_3_)" stroke="#000000" stroke-width="0.25" stroke-miterlimit="10" stroke-dasharray="2" d="M313.8,233.9
				c3,0,5.4,1.8,5.4,4c0,2.2-2.4,4-5.4,4c-3,0-5.4-1.8-5.4-4C308.4,235.6,310.8,233.9,313.8,233.9L313.8,233.9z"/>
		</g>
		<circle cx="313.7" cy="239.7" r="0.5"/>
	</g>
	<g>
		<g>
			<path fill="none" stroke="#000000" stroke-width="0.25" stroke-miterlimit="10" stroke-dasharray="2" d="M325.1,202.7
				c0,0,0.2,6.8-4.7,11.7c-0.2,0.2-0.4,0.4-0.6,0.6"/>
		</g>
		<g>
			
				<rect x="305.4" y="208.2" transform="matrix(-0.7071 -0.7071 0.7071 -0.7071 388.368 578.2946)" fill="#E6E7E8" stroke="#000000" stroke-width="0.25" stroke-miterlimit="10" stroke-dasharray="2" width="17.1" height="1"/>
		</g>
	</g>
	<g>
		<path fill="#E6E7E8" stroke="#000000" stroke-width="0.25" stroke-miterlimit="10" stroke-dasharray="2" d="M303.8,200.2h-1.5
			v47.3h3c0,0,0-41.5,0-44.3c1,0,2.2,0,2.2,0v-3H303.8z"/>
	</g>
	<g>
		
			<rect x="325" y="200.2" fill="#E6E7E8" stroke="#000000" stroke-width="0.25" stroke-miterlimit="10" stroke-dasharray="2" width="45.9" height="3"/>
	</g>
</g>
<polyline fill="none" stroke="#000000" stroke-width="5.5" stroke-miterlimit="10" points="116.7,19 13.3,19 13.3,263.7 104,263.7 
	104,247.7 370.7,247.7 370.7,19 314.7,19 "/>
<line fill="none" stroke="#000000" stroke-width="5.5" stroke-miterlimit="10" x1="202" y1="19" x2="140" y2="19"/>
<polyline fill="none" stroke="#000000" stroke-width="0.3714" stroke-miterlimit="10" points="194.7,201 200,191.2 206,189.2 
	197.7,186.8 203.8,185.2 209.5,175.3 "/>
</svg>
