<?xml version="1.0" encoding="utf-8"?>
<!-- Generator: Adobe Illustrator 18.1.0, SVG Export Plug-In . SVG Version: 6.00 Build 0)  -->
<!DOCTYPE svg PUBLIC "-//W3C//DTD SVG 1.1//EN" "http://www.w3.org/Graphics/SVG/1.1/DTD/svg11.dtd">
<svg version="1.1" id="Layer_2" xmlns="http://www.w3.org/2000/svg" xmlns:xlink="http://www.w3.org/1999/xlink" x="0px" y="0px"
	 viewBox="0 0 612 792" enable-background="new 0 0 612 792" xml:space="preserve">
<pattern  y="792" width="4.7" height="4.7" patternUnits="userSpaceOnUse" id="Bathroom_Tile" viewBox="0 -4.7 4.7 4.7" overflow="visible">
	<g>
		<polygon fill="none" points="0,0 0,-4.7 4.7,-4.7 4.7,0 		"/>
		<polygon fill="#CCDFF3" points="4.7,0 0.1,0 0.1,-4.6 4.7,-4.6 		"/>
		<polyline fill="#CCDFF3" points="0.1,0 0.1,-4.6 4.7,-4.6 		"/>
		<polyline fill="none" stroke="#909EAE" stroke-width="0.22" stroke-miterlimit="10" points="0.1,0 0.1,-4.6 4.7,-4.6 		"/>
	</g>
</pattern>
<polygon fill="#E6E7E8" stroke="#000000" stroke-width="0.2176" stroke-miterlimit="10" points="123.7,495 212.7,495 213.2,479.7 
	478.4,479.7 479.9,459.3 479.2,459.3 479.9,444.5 479.7,444.5 479.7,357.2 479.7,357.2 479.7,250.2 250.5,250.2 250.5,246.2 
	224.5,246.2 224.5,250.2 123.7,250.2 "/>
<polygon fill="#FFD49A" points="279.5,379 340,379 340,406.3 318.5,407.3 312.8,417.2 306.7,418.8 314.8,421.2 309,423.2 
	302.8,435.1 279.5,433.8 "/>
<g>
	<g>
		<path fill="none" stroke="#000000" stroke-width="0.25" stroke-miterlimit="10" d="M225.5,253.3c0,0-0.3,9.2,6.3,15.8
			c0.3,0.3,0.6,0.5,0.8,0.8"/>
	</g>
	<line fill="#E6E7E8" stroke="#000000" stroke-miterlimit="10" x1="248.7" y1="253.3" x2="232.3" y2="269.7"/>
</g>
<g>
	<text transform="matrix(1 0 0 1 252.6665 327.6611)" font-family="'ArialMT'" font-size="10">Unfinished Basement</text>
</g>
<g>
	
		<rect x="309.2" y="246.9" fill="#E6E7E8" stroke="#000000" stroke-width="0.25" stroke-miterlimit="10" width="23.5" height="6.8"/>
	<line fill="none" stroke="#000000" stroke-width="0.25" stroke-miterlimit="10" x1="309.5" y1="250.5" x2="333" y2="250.5"/>
	<line fill="none" stroke="#000000" stroke-width="0.25" stroke-miterlimit="10" x1="309.3" y1="248.4" x2="332.8" y2="248.4"/>
	<line fill="none" stroke="#000000" stroke-width="0.25" stroke-miterlimit="10" x1="309.5" y1="249.5" x2="333" y2="249.5"/>
</g>
<g>
	
		<rect x="401.5" y="246.9" fill="#E6E7E8" stroke="#000000" stroke-width="0.25" stroke-miterlimit="10" width="23.5" height="6.8"/>
	<line fill="none" stroke="#000000" stroke-width="0.25" stroke-miterlimit="10" x1="401.7" y1="250.5" x2="425.2" y2="250.5"/>
	<line fill="none" stroke="#000000" stroke-width="0.25" stroke-miterlimit="10" x1="401.5" y1="248.4" x2="425.1" y2="248.4"/>
	<line fill="none" stroke="#000000" stroke-width="0.25" stroke-miterlimit="10" x1="401.7" y1="249.5" x2="425.2" y2="249.5"/>
</g>
<circle fill="#E6E7E8" stroke="#000000" stroke-width="0.25" stroke-miterlimit="10" cx="306.4" cy="452" r="7.8"/>
<g>
	<text transform="matrix(1 0 0 1 278.0269 468.3271)" font-family="'ArialMT'" font-size="7">HVAC</text>
</g>
<g>
	<text transform="matrix(1 0 0 1 300.1689 454.5)" font-family="'ArialMT'" font-size="7">WH</text>
</g>
<g>
	<text transform="matrix(1 0 0 1 344.8594 395)" font-family="'ArialMT'" font-size="7">Up</text>
</g>
<polyline fill="none" stroke="#000000" stroke-width="3" stroke-miterlimit="10" points="347.3,410.3 347.3,406.3 304.3,406.3 "/>
<line fill="none" stroke="#000000" stroke-width="3" stroke-miterlimit="10" x1="347.3" y1="436.2" x2="347.3" y2="429.3"/>
<rect x="281.2" y="442.2" fill="#E6E7E8" stroke="#000000" stroke-width="0.25" stroke-miterlimit="10" width="13.6" height="19.5"/>
<line fill="none" stroke="#000000" stroke-width="0.3714" stroke-miterlimit="10" x1="305" y1="430.9" x2="305" y2="379.1"/>
<line fill="none" stroke="#000000" stroke-width="0.3714" stroke-miterlimit="10" x1="310.6" y1="417.8" x2="310.6" y2="379.1"/>
<line fill="none" stroke="#000000" stroke-width="0.3714" stroke-miterlimit="10" x1="310.6" y1="422.6" x2="310.6" y2="419.9"/>
<line fill="none" stroke="#000000" stroke-width="0.2768" stroke-miterlimit="10" x1="316.3" y1="411" x2="316.3" y2="379.1"/>
<line fill="none" stroke="#000000" stroke-width="0.25" stroke-miterlimit="10" x1="322.3" y1="406.1" x2="322.3" y2="380.1"/>
<line fill="none" stroke="#000000" stroke-width="0.25" stroke-miterlimit="10" x1="328.3" y1="406.1" x2="328.3" y2="380.1"/>
<line fill="none" stroke="#000000" stroke-width="0.25" stroke-miterlimit="10" x1="334" y1="406.1" x2="334" y2="380.1"/>
<line fill="none" stroke="#000000" stroke-width="0.25" stroke-miterlimit="10" x1="340" y1="406.1" x2="340" y2="380.1"/>
<g>
	<line fill="none" stroke="#000000" stroke-width="0.25" stroke-miterlimit="10" x1="344.3" y1="392.7" x2="319.6" y2="392.7"/>
	<path d="M317.3,392.7c1.1-0.4,2.4-1.1,3.2-1.8l-0.6,1.8l0.6,1.8C319.7,393.7,318.4,393.1,317.3,392.7z"/>
</g>
<g>
	<g>
		<path fill="none" stroke="#000000" stroke-width="0.2766" stroke-miterlimit="10" d="M348.2,410.1c0,0,7.5-0.3,13,5.2
			c0.2,0.2,0.4,0.5,0.7,0.7"/>
	</g>
	<line fill="none" stroke="#000000" stroke-width="1.1066" stroke-miterlimit="10" x1="348.2" y1="429.2" x2="361.6" y2="415.7"/>
</g>
<line fill="#E6E7E8" stroke="#000000" stroke-width="0.25" stroke-miterlimit="10" x1="281.2" y1="442.2" x2="294.8" y2="461.8"/>
<line fill="#E6E7E8" stroke="#000000" stroke-width="0.25" stroke-miterlimit="10" x1="294.8" y1="442.2" x2="281.2" y2="461.8"/>
<line fill="none" stroke="#000000" stroke-width="3" stroke-miterlimit="10" x1="279.3" y1="377.2" x2="279.3" y2="434.3"/>
<rect x="278" y="376.2" stroke="#000000" stroke-width="0.25" stroke-miterlimit="10" width="70.3" height="4.3"/>
<rect x="278" y="432.2" stroke="#000000" stroke-width="0.25" stroke-miterlimit="10" width="70.3" height="4.3"/>
<line fill="none" stroke="#000000" stroke-width="5.5" stroke-miterlimit="10" x1="402.7" y1="251" x2="331.3" y2="251"/>
<g id="Layer_3">
	<pattern  id="SVGID_1_" xlink:href="#Bathroom_Tile" patternTransform="matrix(0 1 1 0 707.6904 -710)">
	</pattern>
	
		<rect x="411.5" y="434.9" fill="url(#SVGID_1_)" stroke="#000000" stroke-width="0.2176" stroke-miterlimit="10" width="57.2" height="43.1"/>
	
		<rect x="412.8" y="463.6" fill="#E6E7E8" stroke="#000000" stroke-width="0.25" stroke-miterlimit="10" stroke-dasharray="2" width="18.6" height="13.3"/>
	
		<rect x="455.7" y="434.7" fill="#E6E7E8" stroke="#000000" stroke-width="0.284" stroke-linecap="square" stroke-miterlimit="10" stroke-dasharray="2" width="23.9" height="42.4"/>
	<g>
		<linearGradient id="SVGID_2_" gradientUnits="userSpaceOnUse" x1="458.7832" y1="455.7159" x2="473.4258" y2="455.7159">
			<stop  offset="0" style="stop-color:#6EC9EF"/>
			<stop  offset="1" style="stop-color:#006CA0"/>
		</linearGradient>
		<path fill="url(#SVGID_2_)" stroke="#000000" stroke-width="0.25" stroke-miterlimit="10" stroke-dasharray="2" d="M470.9,473.6
			c1.4,0,2.6-1.1,2.6-2.6v-27c0-3.3-3.6-6.2-7.2-6.2c-4.1,0-7.4,2.5-7.4,6.2v27c0,1.4,1.1,2.6,2.6,2.6H470.9z"/>
		<circle cx="466.1" cy="468.6" r="0.8"/>
	</g>
	<g>
		<g>
			<rect x="420.9" y="447.9" fill="#CCDFF3" width="30.5" height="6.7"/>
			<g>
				<text transform="matrix(1 0 0 1 421.3213 453.7842)" font-family="'ArialMT'" font-size="7">Opt. Bath</text>
			</g>
		</g>
	</g>
	
		<path fill="#E6E7E8" stroke="#000000" stroke-width="0.25" stroke-linecap="square" stroke-miterlimit="10" stroke-dasharray="2" d="
		M451,476.4c0,0-10.8,0-11.6,0c-0.8,0-1-0.7-1-1.1c0-0.4,0-2.8,0-3.3c0-0.6,0.5-1.1,1.2-1.1c0.7,0,2.3,0.5,2.3-1.3
		c0-1.8-1.6-3.6-1.6-6.5c0-2.9,1.9-5.9,4.9-5.9c3,0,4.6,3.1,4.6,5.9c0,2.8-1.5,4.5-1.5,6.5c0,1,0.5,1.4,1.1,1.4c0.6,0,1,0,1.7,0
		c0.7,0,1.1,0.3,1.1,1c0,0.7,0,3.2,0,3.7S451.7,476.4,451,476.4z"/>
	<g>
		<g>
			<linearGradient id="SVGID_3_" gradientUnits="userSpaceOnUse" x1="417.3965" y1="469.8369" x2="428.2285" y2="469.8369">
				<stop  offset="0" style="stop-color:#6EC9EF"/>
				<stop  offset="1" style="stop-color:#006CA0"/>
			</linearGradient>
			<path fill="url(#SVGID_3_)" stroke="#000000" stroke-width="0.25" stroke-miterlimit="10" stroke-dasharray="2" d="M422.8,465.9
				c3,0,5.4,1.8,5.4,4c0,2.2-2.4,4-5.4,4c-3,0-5.4-1.8-5.4-4C417.4,467.6,419.8,465.9,422.8,465.9L422.8,465.9z"/>
		</g>
		<circle cx="422.7" cy="471.7" r="0.5"/>
	</g>
	<g>
		<g>
			<path fill="none" stroke="#000000" stroke-width="0.25" stroke-miterlimit="10" stroke-dasharray="2" d="M434.1,434.7
				c0,0,0.2,6.8-4.7,11.7c-0.2,0.2-0.4,0.4-0.6,0.6"/>
		</g>
		<g>
			
				<rect x="414.4" y="440.2" transform="matrix(-0.7071 -0.7071 0.7071 -0.7071 410.385 1051.4149)" fill="#E6E7E8" stroke="#000000" stroke-width="0.25" stroke-miterlimit="10" stroke-dasharray="2" width="17.1" height="1"/>
		</g>
	</g>
	<g>
		<path fill="#E6E7E8" stroke="#000000" stroke-width="0.25" stroke-miterlimit="10" stroke-dasharray="2" d="M412.8,432.2h-1.5
			v47.3h3c0,0,0-41.5,0-44.3c1,0,2.2,0,2.2,0v-3H412.8z"/>
	</g>
	<g>
		
			<rect x="434" y="432.2" fill="#E6E7E8" stroke="#000000" stroke-width="0.25" stroke-miterlimit="10" stroke-dasharray="2" width="45.9" height="3"/>
	</g>
</g>
<polyline fill="none" stroke="#000000" stroke-width="5.5" stroke-miterlimit="10" points="225.7,251 122.3,251 122.3,495.7 
	213,495.7 213,479.7 479.7,479.7 479.7,251 423.7,251 "/>
<line fill="none" stroke="#000000" stroke-width="5.5" stroke-miterlimit="10" x1="311" y1="251" x2="249" y2="251"/>
<polyline fill="none" stroke="#000000" stroke-width="0.3714" stroke-miterlimit="10" points="303.7,433 309,423.2 315,421.2 
	306.7,418.8 312.8,417.2 318.5,407.3 "/>
</svg>
